<?xml version="1.0" encoding="UTF-8"?>
<svg width="700pt" height="700pt" version="1.1" viewBox="0 0 700 700" xmlns="http://www.w3.org/2000/svg">
 <g>
  <path d="m119.72 327.5c1.5625-1.4961 2.1406-3.75 1.4922-5.8125-0.64844-2.0586-2.4141-3.5781-4.5469-3.9102l-34.301-5.2656c-0.46484-0.074219-0.86328-0.36719-1.0664-0.78906l-15.121-31.242c-0.94531-1.9414-2.9062-3.1758-5.0664-3.1953-2.1562-0.015625-4.1367 1.1875-5.1133 3.1133l-15.621 30.996c-0.21094 0.41797-0.61328 0.70703-1.0781 0.77344l-34.383 4.707c-2.1445 0.29297-3.9375 1.7812-4.6211 3.832-0.68359 2.0547-0.14453 4.3164 1.3945 5.8398l24.652 24.426v-0.003906c0.33203 0.32812 0.48438 0.80078 0.39844 1.2617l-6.1406 34.156c-0.38281 2.1289 0.47656 4.2891 2.2148 5.5781 1.7422 1.2852 4.0586 1.4688 5.9844 0.48047l30.844-15.902c0.41406-0.21875 0.91016-0.21875 1.3242 0l30.586 16.395c1.9062 1.0234 4.2305 0.875 5.9883-0.38281 1.7617-1.2578 2.6562-3.4062 2.3086-5.543l-5.5898-34.238c-0.074219-0.46094 0.078125-0.92969 0.41797-1.2539z"/>
  <path d="m264.36 327.5c1.5625-1.5 2.1367-3.7539 1.4844-5.8164s-2.418-3.5781-4.5547-3.9062l-34.305-5.2656c-0.46094-0.074219-0.85938-0.36719-1.0625-0.78906l-15.105-31.242c-0.94531-1.9492-2.9102-3.1914-5.0742-3.2109-2.1641-0.015625-4.1484 1.1953-5.1211 3.1289l-15.609 30.996c-0.21094 0.41797-0.61328 0.70703-1.0781 0.77344l-34.383 4.7148 0.003906-0.003906c-2.1445 0.29297-3.9375 1.7773-4.625 3.832-0.68359 2.0508-0.14453 4.3164 1.3945 5.8359l24.656 24.426c0.33203 0.32812 0.48047 0.80078 0.39844 1.2578l-6.1445 34.156c-0.37891 2.1289 0.48047 4.2891 2.2188 5.5781 1.7383 1.2852 4.0586 1.4688 5.9805 0.48047l30.848-15.902c0.41406-0.21875 0.90625-0.21875 1.3203 0l30.586 16.395h0.003906c1.9062 1.0234 4.2266 0.875 5.9883-0.38281 1.7617-1.2578 2.6562-3.4062 2.3047-5.543l-5.5898-34.238c-0.078125-0.46094 0.082031-0.92969 0.41797-1.2539z"/>
  <path d="m408.98 327.5c1.5625-1.5 2.1367-3.7539 1.4844-5.8164s-2.418-3.5781-4.5547-3.9062l-34.301-5.2656c-0.46484-0.074219-0.86328-0.36719-1.0664-0.78906l-15.105-31.242c-0.94141-1.957-2.9102-3.207-5.0781-3.2266-2.1719-0.015625-4.1602 1.1992-5.1328 3.1406l-15.594 31c-0.21094 0.41797-0.61328 0.70703-1.0781 0.77344l-34.383 4.7148 0.003907-0.003906c-2.1445 0.29297-3.9336 1.7812-4.6211 3.832-0.68359 2.0508-0.14453 4.3125 1.3906 5.8359l24.656 24.426c0.33203 0.32812 0.48047 0.80078 0.39844 1.2578l-6.1406 34.156-0.003906 0.003906c-0.38281 2.1289 0.48047 4.2891 2.2188 5.5742s4.0586 1.4727 5.9805 0.48438l30.848-15.902c0.41406-0.21875 0.91016-0.21875 1.3242 0l30.586 16.395c1.9062 1.0234 4.2266 0.875 5.9883-0.38281 1.7617-1.2578 2.6562-3.4062 2.3047-5.543l-5.5898-34.25c-0.074219-0.46094 0.082031-0.92969 0.41797-1.2539z"/>
  <path d="m553.62 327.5c1.5586-1.5 2.1367-3.7539 1.4844-5.8164-0.65234-2.0625-2.4219-3.5781-4.5586-3.9062l-34.293-5.2656c-0.46094-0.074219-0.85938-0.36719-1.0664-0.78906l-15.113-31.242c-0.94141-1.9492-2.9062-3.1914-5.0703-3.2109s-4.1484 1.1953-5.1211 3.125l-15.613 31c-0.20703 0.41797-0.60938 0.70703-1.0742 0.77344l-34.383 4.7148v-0.003906c-2.1445 0.29297-3.9336 1.7773-4.6211 3.832-0.68359 2.0508-0.14453 4.3164 1.3945 5.8359l24.656 24.426h-0.003906c0.33203 0.32812 0.48047 0.80078 0.39844 1.2578l-6.1406 34.156-0.003907 0.003906c-0.37891 2.1289 0.48047 4.2891 2.2227 5.5742 1.7383 1.2852 4.0586 1.4727 5.9805 0.48438l30.844-15.902c0.41406-0.21875 0.91016-0.21875 1.3242 0l30.586 16.395c1.9062 1.0273 4.2305 0.88281 5.9922-0.375 1.7656-1.2539 2.6602-3.4062 2.3125-5.543l-5.6016-34.25c-0.074219-0.46094 0.082031-0.92969 0.42187-1.2539z"/>
  <path d="m698.25 327.5c1.5625-1.5 2.1367-3.7539 1.4844-5.8164s-2.418-3.5781-4.5547-3.9062l-34.305-5.2656c-0.46094-0.074219-0.85938-0.36719-1.0625-0.78906l-15.113-31.242c-0.94141-1.9492-2.9062-3.1914-5.0703-3.2109-2.1641-0.019531-4.1484 1.1953-5.1211 3.125l-15.613 31c-0.20703 0.41797-0.60938 0.70703-1.0742 0.77344l-34.383 4.7148v-0.003906c-2.1406 0.29297-3.9336 1.7812-4.6172 3.832-0.6875 2.0508-0.14844 4.3125 1.3906 5.8359l24.656 24.426h-0.003907c0.33203 0.32812 0.48047 0.80078 0.40234 1.2578l-6.1406 34.156-0.003906 0.003906c-0.38281 2.1289 0.47656 4.2891 2.2188 5.5742 1.7383 1.2852 4.0586 1.4727 5.9805 0.48438l30.848-15.906c0.41406-0.21875 0.90625-0.21875 1.3203 0l30.586 16.395c1.9062 1.0234 4.2305 0.875 5.9922-0.38281 1.7578-1.2578 2.6523-3.4062 2.3047-5.543l-5.5898-34.25c-0.074219-0.46094 0.082031-0.92969 0.41797-1.2539z"/>
 </g>
</svg>
